<?xml version="1.0" standalone="no"?>
<!DOCTYPE svg PUBLIC "-//W3C//DTD SVG 20010904//EN"
 "http://www.w3.org/TR/2001/REC-SVG-20010904/DTD/svg10.dtd">
<svg version="1.0" xmlns="http://www.w3.org/2000/svg"
 width="225.000000pt" height="225.000000pt" viewBox="0 0 225.000000 225.000000"
 preserveAspectRatio="xMidYMid meet">
<metadata>
Created by potrace 1.16, written by Peter Selinger 2001-2019
</metadata>
<g transform="translate(0.000000,225.000000) scale(0.100000,-0.100000)"
fill="#000000" stroke="none">
<path d="M952 1944 c-5 -9 -7 -25 -5 -34 3 -11 -3 -19 -16 -23 -17 -4 -22 1
-27 29 -3 19 -10 31 -15 28 -5 -3 -7 -20 -3 -39 3 -19 1 -35 -5 -39 -7 -4 -11
1 -11 13 0 30 -11 51 -26 51 -8 0 -14 -4 -14 -10 0 -5 5 -10 10 -10 6 0 10 -8
10 -18 0 -24 -35 -58 -45 -43 -3 6 -1 11 5 11 7 0 10 6 7 14 -3 8 -1 17 6 19
9 3 9 8 -1 18 -10 11 -16 11 -33 1 -12 -8 -19 -10 -16 -5 3 5 -3 9 -13 9 -10
0 -17 -3 -14 -7 2 -4 -7 -14 -20 -22 -18 -12 -22 -22 -18 -44 2 -15 9 -33 13
-39 10 -13 59 -7 59 7 0 5 11 9 24 9 13 0 29 6 36 14 6 8 18 12 26 9 8 -3 22
1 31 8 9 8 18 12 20 11 9 -9 82 11 86 23 4 9 -1 11 -14 8 -23 -6 -26 19 -4 37
8 7 12 16 9 21 -9 15 -32 10 -42 -7z"/>
<path d="M1100 1741 c-45 -10 -115 -48 -211 -115 -94 -66 -150 -81 -247 -66
-36 6 -69 13 -74 16 -4 3 1 -19 13 -48 57 -141 71 -252 43 -335 -33 -98 -12
-190 73 -311 80 -113 216 -232 376 -326 l79 -47 56 33 c241 136 430 333 478
496 17 58 16 71 -11 172 -15 56 -16 76 -6 138 6 40 24 107 41 150 16 42 30 80
30 83 0 4 -26 0 -57 -7 -78 -18 -185 -18 -231 2 -20 8 -68 39 -107 69 -114 87
-174 110 -245 96z m120 -36 c14 -7 61 -40 105 -72 44 -33 91 -65 103 -72 33
-18 155 -25 225 -13 52 8 57 7 51 -7 -64 -158 -75 -274 -37 -378 36 -98 -30
-238 -183 -389 -79 -79 -274 -219 -321 -230 -15 -4 -42 6 -85 32 -190 114
-347 266 -413 400 -40 81 -45 133 -19 222 21 71 14 159 -20 266 l-25 79 49 -6
c99 -12 152 5 284 92 66 43 137 84 156 89 39 12 92 7 130 -13z"/>
<path d="M1085 1688 c-16 -6 -81 -44 -143 -85 -126 -83 -150 -93 -239 -93 -35
0 -63 -1 -63 -2 0 -2 9 -31 20 -64 34 -110 35 -206 4 -287 -6 -16 14 -17 235
-17 l241 0 0 280 c0 302 3 288 -55 268z"/>
<path d="M1314 1340 c-35 -15 -84 -70 -84 -94 0 -3 73 -6 163 -6 117 0 167 -4
176 -12 10 -11 10 -8 3 12 -24 61 -48 90 -90 106 -33 12 -50 14 -66 6 -14 -6
-28 -7 -37 -1 -18 11 -16 11 -65 -11z"/>
<path d="M1170 850 c0 -148 3 -270 6 -270 16 0 157 96 224 152 136 115 235
254 247 347 l6 41 -242 0 -241 0 0 -270z"/>
<path d="M822 953 c3 -131 -4 -118 71 -122 9 -1 17 -5 17 -10 0 -5 -8 -12 -17
-14 -10 -3 18 -5 62 -4 44 0 70 2 58 4 -39 8 -25 22 25 25 l47 3 0 115 0 115
-133 3 -133 3 3 -118z m254 20 l2 -83 -124 0 -124 0 0 85 0 86 123 -3 122 -3
1 -82z"/>
<path d="M1468 457 c-10 -8 -13 -18 -8 -27 9 -18 -5 -60 -20 -60 -13 0 -13 16
2 40 9 14 9 23 2 30 -17 17 -47 -17 -40 -45 4 -17 1 -24 -14 -28 -17 -4 -20 0
-20 25 0 26 -3 29 -27 26 -25 -3 -28 -6 -25 -38 3 -33 1 -35 -27 -37 -36 -3
-38 1 -11 29 27 29 25 38 -7 38 -25 0 -28 -4 -28 -33 1 -41 13 -60 34 -52 9 4
25 8 36 9 13 1 19 8 18 21 -1 19 -1 19 12 2 11 -16 19 -17 62 -8 105 22 118
27 122 46 3 17 1 18 -13 6 -22 -19 -29 -9 -16 23 5 15 10 32 10 37 0 13 -22
11 -42 -4z"/>
</g>
</svg>
